<svg width="33" height="33" viewBox="0 0 33 33" fill="none" xmlns="http://www.w3.org/2000/svg"><g clip-path="url(#clip0)" fill="#fff"><path d="M8.21229 8.75178C8.73849 8.66089 9.09122 8.16087 9.00058 7.63467C8.48571 4.6512 10.7871 1.93359 13.7955 1.93359C16.7949 1.93359 19.1003 4.63836 18.5925 7.62284C18.5031 8.14929 18.8571 8.64855 19.3836 8.73818C19.91 8.82806 20.4093 8.47357 20.4989 7.94712C21.2054 3.79317 17.9993 0 13.7955 0C9.59652 0 6.37512 3.79266 7.09519 7.96349C7.18607 8.4912 7.6881 8.84241 8.21229 8.75178Z"/><path d="M24.0838 15.5103C23.3592 14.0881 21.6333 13.5203 20.2166 14.2213C19.558 12.9284 18.0516 12.3176 16.6825 12.793V6.8721C16.6825 5.294 15.4143 3.97548 13.8551 3.93268C12.2214 3.88636 10.8676 5.1948 10.8676 6.83206V21.726L9.7319 20.5367C8.64174 19.3954 6.8164 19.3151 5.66254 20.3582C4.44498 21.4586 4.3843 23.3326 5.50544 24.5103L12.0328 31.4725C12.943 32.4431 14.2285 33 15.5594 33H23.432C26.0975 33 28.2659 30.8315 28.2659 28.166V18.1114C28.2659 15.9696 26.0068 14.5589 24.0838 15.5103ZM26.3324 28.166C26.3324 29.7653 25.0312 31.0664 23.432 31.0664H15.5594C14.7608 31.0664 13.9896 30.7323 13.4435 30.1497C13.4201 30.1251 6.93045 23.2032 6.90704 23.1785C6.53316 22.7867 6.55104 22.1616 6.9589 21.7925C7.34336 21.4453 7.95994 21.481 8.33332 21.872L11.135 24.8059C11.7357 25.4353 12.801 25.0083 12.801 24.1385V6.83206C12.801 6.28874 13.2516 5.85016 13.8025 5.86552C14.3244 5.87987 14.7489 6.33129 14.7489 6.8721C14.7489 17.5104 14.7308 12.6882 14.7308 18.4336C14.7308 18.9691 15.1669 19.4055 15.7067 19.3999C16.2457 19.4055 16.6825 18.9694 16.6825 18.4336V15.3494C16.7686 14.9038 17.1609 14.5664 17.6312 14.5664C18.1642 14.5664 18.598 15.0002 18.598 15.5332V18.4336C18.598 18.9676 19.0308 19.4004 19.5648 19.4004C20.0988 19.4004 20.5316 18.9676 20.5316 18.4336V16.8223C20.5316 16.2893 20.9654 15.8555 21.4984 15.8555C22.0314 15.8555 22.4652 16.2893 22.4652 16.8223V18.4336C22.4652 18.9676 22.898 19.4004 23.432 19.4004C23.966 19.4004 24.3988 18.9676 24.3988 18.4336V18.1114C24.3988 17.5784 24.8326 17.1446 25.3656 17.1446C25.8986 17.1446 26.3324 17.5784 26.3324 18.1114V28.166Z"/></g><defs><clipPath id="clip0"><path fill="#fff" d="M0 0H33V33H0z"/></clipPath></defs></svg>