<svg width="28" height="27" viewBox="0 0 28 27" fill="none" xmlns="http://www.w3.org/2000/svg"><path d="M8.52423 14.8184C9.27867 14.8184 9.89026 14.2281 9.89026 13.5C9.89026 12.7719 9.27867 12.1816 8.52423 12.1816C7.76979 12.1816 7.1582 12.7719 7.1582 13.5C7.1582 14.2281 7.76979 14.8184 8.52423 14.8184Z" fill="#03A659"/><path d="M18.3601 20.0918C19.1146 20.0918 19.7261 19.5015 19.7261 18.7734C19.7261 18.0453 19.1146 17.4551 18.3601 17.4551C17.6057 17.4551 16.9941 18.0453 16.9941 18.7734C16.9941 19.5015 17.6057 20.0918 18.3601 20.0918Z" fill="#03A659"/><path d="M18.3601 9.54492C19.1146 9.54492 19.7261 8.95467 19.7261 8.22656C19.7261 7.49845 19.1146 6.9082 18.3601 6.9082C17.6057 6.9082 16.9941 7.49845 16.9941 8.22656C16.9941 8.95467 17.6057 9.54492 18.3601 9.54492Z" fill="#03A659"/><path d="M13.988 0C6.27496 0 0 6.05607 0 13.5C0 20.9439 6.27496 27 13.988 27C21.7009 27 27.9759 20.9439 27.9759 13.5C27.9759 6.05607 21.7009 0 13.988 0ZM11.5291 13.5C11.5291 13.7283 11.5008 13.9502 11.4489 14.1635L16.2312 16.7276C16.7757 16.2001 17.5285 15.873 18.3592 15.873C20.0163 15.873 21.3644 17.1742 21.3644 18.7734C21.3644 20.3727 20.0163 21.6738 18.3592 21.6738C16.7021 21.6738 15.354 20.3727 15.354 18.7734C15.354 18.5452 15.3823 18.3232 15.4342 18.11L10.6519 15.5459C10.1074 16.0734 9.35455 16.4004 8.52391 16.4004C6.86683 16.4004 5.51868 15.0993 5.51868 13.5C5.51868 11.9007 6.86683 10.5996 8.52391 10.5996C9.35455 10.5996 10.1074 10.9266 10.6519 11.4541L15.4342 8.89001C15.3823 8.67676 15.354 8.45485 15.354 8.22656C15.354 6.62729 16.7021 5.32617 18.3592 5.32617C20.0163 5.32617 21.3644 6.62729 21.3644 8.22656C21.3644 9.82584 20.0163 11.127 18.3592 11.127C17.5285 11.127 16.7757 10.7999 16.2312 10.2724L11.4489 12.8365C11.5008 13.0498 11.5291 13.2717 11.5291 13.5Z" fill="#03A659"/></svg>