<svg width="28" height="27" viewBox="0 0 28 27" fill="none" xmlns="http://www.w3.org/2000/svg"><path d="M26.2823 0H16.9983C16.0805 0 15.334 0.746604 15.334 1.66419C15.334 2.58178 16.0805 3.32838 16.9983 3.32838H22.2646L13.4798 12.1128C13.1653 12.4271 12.9922 12.845 12.9922 13.2897C12.9922 13.7343 13.1652 14.1521 13.4796 14.4661C13.794 14.7808 14.2117 14.9539 14.6564 14.9539C15.1009 14.9539 15.5189 14.7809 15.8334 14.4664L24.6181 5.68183V10.948C24.6181 11.8656 25.3647 12.6122 26.2823 12.6122C27.1999 12.6122 27.9466 11.8656 27.9466 10.948V1.66419C27.9466 0.746604 27.1999 0 26.2823 0Z" fill="#fff"/><path d="M20.0753 24.147H3.80025V7.87243H16.0406L18.8936 5.01953H2.37376C1.58595 5.01953 0.947266 5.6582 0.947266 6.44598V25.5734C0.947266 26.3612 1.58595 26.9999 2.37376 26.9999H21.5018C22.2896 26.9999 22.9283 26.3612 22.9283 25.5734V9.0541L20.0753 11.907V24.147Z" fill="#fff"/></svg>