<svg width="27" height="27" viewBox="0 0 27 27" fill="none" xmlns="http://www.w3.org/2000/svg"><path d="M15.2343 10.3886L13.4993 6.87305L11.7643 10.3886C11.6491 10.6221 11.4263 10.7839 11.1687 10.8214L7.28906 11.3851L10.0964 14.1216C10.2828 14.3033 10.3679 14.5651 10.3239 14.8218L9.66121 18.6857L13.1313 16.8614C13.2465 16.8008 13.373 16.7706 13.4994 16.7706C13.6258 16.7706 13.7522 16.8008 13.8675 16.8614L17.3375 18.6857L16.6748 14.8218C16.6309 14.5651 16.7159 14.3033 16.9023 14.1216L19.7097 11.3851L15.83 10.8214C15.5723 10.7839 15.3496 10.6221 15.2343 10.3886Z" fill="#FF3D00"/><path d="M13.5 0C6.05607 0 0 6.05607 0 13.5C0 20.9439 6.05607 27 13.5 27C20.9439 27 27 20.9439 27 13.5C27 6.05607 20.9439 0 13.5 0ZM21.9623 11.3996L18.305 14.9646L19.1684 19.9984C19.2193 20.2951 19.0973 20.5951 18.8537 20.7721C18.7159 20.8722 18.5527 20.9232 18.3887 20.9232C18.2628 20.9232 18.1364 20.8931 18.0207 20.8323L13.5 18.4556L8.97935 20.8322C8.71283 20.9724 8.38993 20.949 8.1463 20.772C7.90272 20.595 7.78069 20.2951 7.83163 19.9984L8.695 14.9645L5.03771 11.3996C4.82214 11.1894 4.74451 10.8751 4.83759 10.5887C4.93061 10.3024 5.17815 10.0937 5.4761 10.0504L10.5304 9.31595L12.7907 4.73602C12.9239 4.46602 13.1989 4.29511 13.5 4.29511C13.8011 4.29511 14.0761 4.46607 14.2093 4.73602L16.4696 9.31595L21.5239 10.0504C21.8219 10.0937 22.0694 10.3024 22.1624 10.5887C22.2555 10.8751 22.1779 11.1894 21.9623 11.3996Z" fill="#FF3D00"/></svg>