<svg xmlns="http://www.w3.org/2000/svg" width="61" height="43" viewBox="0 0 61 43"><defs><clipPath id="gljaa"><path fill="#fff" d="M60.511 16.055V26.53c0 6.642-1.048 10.479-3.503 12.828-2.394 2.292-6.095 3.226-12.774 3.226H16.277C2.517 42.585 0 37.18 0 26.531V16.055c0-5.497 0-9.468 2.122-12.163C4.298 1.127 8.399 0 16.277 0h27.957c7.701 0 11.734 1.06 13.918 3.656 2.195 2.608 2.359 6.602 2.359 12.399zm-21.663 6.684a1.952 1.952 0 0 0-.004-3.462l-12.695-6.593a1.952 1.952 0 0 0-2.852 1.733v13.227a1.952 1.952 0 0 0 2.856 1.73z"/></clipPath></defs><path fill="#fff" fill-opacity=".56" d="M60.511 16.055V26.53c0 6.642-1.048 10.479-3.503 12.828-2.394 2.292-6.095 3.226-12.774 3.226H16.277C2.517 42.585 0 37.18 0 26.531V16.055c0-5.497 0-9.468 2.122-12.163C4.298 1.127 8.399 0 16.277 0h27.957c7.701 0 11.734 1.06 13.918 3.656 2.195 2.608 2.359 6.602 2.359 12.399zm-21.663 6.684a1.952 1.952 0 0 0-.004-3.462l-12.695-6.593a1.952 1.952 0 0 0-2.852 1.733v13.227a1.952 1.952 0 0 0 2.856 1.73z"/><path fill="none" stroke="#000" stroke-miterlimit="20" stroke-opacity=".5" stroke-width="2" d="M60.511 16.055V26.53c0 6.642-1.048 10.479-3.503 12.828-2.394 2.292-6.095 3.226-12.774 3.226H16.277C2.517 42.585 0 37.18 0 26.531V16.055c0-5.497 0-9.468 2.122-12.163C4.298 1.127 8.399 0 16.277 0h27.957c7.701 0 11.734 1.06 13.918 3.656 2.195 2.608 2.359 6.602 2.359 12.399zm-21.663 6.684a1.952 1.952 0 0 0-.004-3.462l-12.695-6.593a1.952 1.952 0 0 0-2.852 1.733v13.227a1.952 1.952 0 0 0 2.856 1.73z" clip-path="url(&quot;#gljaa&quot;)"/></svg>