<svg xmlns="http://www.w3.org/2000/svg" width="33" height="24" viewBox="0 0 33 24"><g><g><path fill="currentColor" d="M29.963.02H3.037C1.362.02 0 1.341 0 2.967 0 4.59 1.362 5.912 3.037 5.912h26.926C31.638 5.912 33 4.59 33 2.967 33 1.34 31.638.02 29.963.02z"/></g><g><path fill="currentColor" d="M29.963 9.05H3.037C1.362 9.05 0 10.371 0 11.997c0 1.624 1.362 2.945 3.037 2.945h26.926c1.675 0 3.037-1.321 3.037-2.945 0-1.626-1.362-2.947-3.037-2.947z"/></g><g><path fill="currentColor" d="M29.963 18.09H3.037C1.362 18.09 0 19.411 0 21.037c0 1.624 1.362 2.945 3.037 2.945h26.926c1.675 0 3.037-1.321 3.037-2.945 0-1.626-1.362-2.947-3.037-2.947z"/></g></g></svg>