<svg width="32" height="32" viewBox="0 0 32 32" fill="none" xmlns="http://www.w3.org/2000/svg">
<path d="M16.0296 0.426758C7.28296 0.426758 0.167969 7.37321 0.167969 15.9112C0.167969 24.4491 7.28296 31.3956 16.0296 31.3956C24.7762 31.3956 31.8912 24.4491 31.8912 15.9112C31.8912 7.37321 24.7762 0.426758 16.0296 0.426758ZM22.3353 16.4537L13.0827 22.2603C12.9742 22.329 12.849 22.363 12.7251 22.363C12.6167 22.363 12.5069 22.3365 12.4089 22.2843C12.1958 22.1709 12.0642 21.9541 12.0642 21.7178V10.1045C12.0642 9.86826 12.1958 9.65148 12.4089 9.53807C12.618 9.42593 12.88 9.43282 13.0827 9.56202L22.3353 15.3687C22.5237 15.4871 22.6386 15.6919 22.6386 15.9112C22.6386 16.1304 22.5237 16.3352 22.3353 16.4537Z" fill="#097BFE"/>
</svg>
