<svg width="27" height="27" viewBox="0 0 27 27" fill="none" xmlns="http://www.w3.org/2000/svg">
<path d="M13.5 0C6.05587 0 0 6.05587 0 13.5C0 20.9441 6.05587 27 13.5 27C20.9441 27 27 20.9441 27 13.5C27 6.05587 20.9441 0 13.5 0ZM21.3626 11.2995L20.1398 18.4241C20.07 18.8291 19.719 19.125 19.3084 19.125H7.69162C7.281 19.125 6.93 18.8291 6.86025 18.4241L5.63738 11.2995C5.58337 10.9879 5.70938 10.6718 5.9625 10.4816C6.21675 10.2904 6.55312 10.26 6.83887 10.3984L10.0946 11.9835L12.7631 7.18313C13.0601 6.6465 13.941 6.6465 14.238 7.18313L16.9065 11.9835L20.1623 10.3984C20.4469 10.26 20.7844 10.2904 21.0386 10.4816C21.2906 10.6718 21.4166 10.9879 21.3626 11.2995Z" fill="black"/>
</svg>
